# xmcd
#
# Track frame offsets:
#	150
#	19274
#	38398
#	57522
#
# Disc length: 918
#
# Revision: 0
# Processed by: cddbd v1.5.1PL2 Copyright (c) Steve Scherf et al.
# Submitted via: Broken Cross Disk Manager 3.81.2155
#
DISCID=29039404
DTITLE=Dave Sheriff - Reed Hot Salsa
DYEAR=1900
DGENRE=
TTITLE0=Red Hot Salsa
TTITLE1=Red Hot Salsa
TTITLE2=Red Hot Salsa
TTITLE3=Cherokee Boogie
EXTD=
EXTT0=
EXTT1=
EXTT2=
EXTT3=
PLAYORDER=
